<?xml version="1.0" standalone="no"?>
<!DOCTYPE svg PUBLIC "-//W3C//DTD SVG 20010904//EN"
 "http://www.w3.org/TR/2001/REC-SVG-20010904/DTD/svg10.dtd">
<svg version="1.0" xmlns="http://www.w3.org/2000/svg"
 width="200.000000pt" height="200.000000pt" viewBox="0 0 200.000000 200.000000"
 preserveAspectRatio="xMidYMid meet">
<metadata>
Created by potrace 1.11, written by Peter Selinger 2001-2013
</metadata>
<g transform="translate(0.000000,200.000000) scale(0.100000,-0.100000)"
fill="#000000" stroke="none">
<path d="M1755 1319 c-50 -33 -117 -80 -150 -105 -158 -119 -219 -163 -223
-160 -1 2 10 31 27 65 41 85 46 113 25 153 -22 44 -44 68 -62 68 -8 0 -99 -85
-201 -189 -174 -177 -385 -371 -404 -371 -5 0 0 15 12 33 52 82 61 105 47 116
-42 35 -148 -155 -137 -246 2 -26 51 -12 108 31 32 24 95 79 140 123 143 138
141 136 98 70 -47 -75 -85 -156 -85 -183 0 -22 28 -54 48 -54 10 0 146 99 187
137 11 10 52 45 90 78 39 33 72 62 75 65 3 3 14 12 25 20 11 8 -13 -21 -53
-65 -81 -88 -132 -179 -125 -219 18 -94 159 -76 307 40 54 43 67 66 46 79 -6
4 -22 -1 -35 -9 -32 -21 -31 -10 3 35 29 38 37 48 212 258 125 150 170 213
170 234 0 13 -21 36 -45 50 -6 3 -51 -21 -100 -54z"/>
<path d="M595 1285 c-109 -23 -150 -40 -250 -108 -177 -119 -278 -308 -231
-431 40 -103 117 -108 255 -14 49 33 71 43 66 31 -3 -10 -9 -32 -12 -49 -6
-38 24 -65 66 -58 47 9 151 80 151 104 0 19 -22 21 -46 5 -14 -9 -28 -15 -30
-12 -3 2 25 53 61 113 75 126 97 181 74 195 -8 5 -17 8 -21 6 -4 -1 -49 -42
-100 -92 -183 -175 -249 -227 -263 -205 -17 27 71 159 169 256 69 68 195 154
226 154 6 0 -1 -16 -16 -35 -23 -30 -24 -36 -10 -41 40 -15 125 89 113 138
-12 45 -99 64 -202 43z"/>
</g>
</svg>
